<svg width="21" height="19" viewBox="0 0 21 19" fill="none" xmlns="http://www.w3.org/2000/svg">
<path d="M14.3 18V2.88889C14.3 2.38792 14.0998 1.90748 13.7435 1.55324C13.3872 1.19901 12.9039 1 12.4 1H8.6C8.09609 1 7.61282 1.19901 7.2565 1.55324C6.90018 1.90748 6.7 2.38792 6.7 2.88889V18M2.9 4.77778H18.1C19.1493 4.77778 20 5.62346 20 6.66667V16.1111C20 17.1543 19.1493 18 18.1 18H2.9C1.85066 18 1 17.1543 1 16.1111V6.66667C1 5.62346 1.85066 4.77778 2.9 4.77778Z" stroke="#212121" stroke-width="1.6" stroke-linecap="round" stroke-linejoin="round"/>
</svg>
