<svg width="21" height="21" viewBox="0 0 21 21" fill="none" xmlns="http://www.w3.org/2000/svg">
<path d="M19.9994 15.2534V18.1193C20.0005 18.3854 19.946 18.6487 19.8394 18.8925C19.7328 19.1363 19.5765 19.3551 19.3804 19.535C19.1844 19.7148 18.9529 19.8518 18.7009 19.937C18.4489 20.0223 18.1818 20.0539 17.9168 20.03C14.9772 19.7105 12.1534 18.706 9.67246 17.0971C7.36425 15.6304 5.4073 13.6735 3.94057 11.3653C2.32607 8.87304 1.32133 6.03555 1.00775 3.08268C0.983881 2.8185 1.01528 2.55225 1.09994 2.30087C1.18461 2.0495 1.32069 1.8185 1.49952 1.6226C1.67835 1.42669 1.89601 1.27017 2.13865 1.16299C2.38128 1.05582 2.64358 1.00034 2.90883 1.00009H5.77477C6.2384 0.99553 6.68786 1.15971 7.03938 1.46202C7.39091 1.76433 7.62052 2.18415 7.6854 2.64323C7.80637 3.5604 8.0307 4.46094 8.35413 5.32767C8.48266 5.6696 8.51047 6.04121 8.43428 6.39846C8.35809 6.75572 8.18108 7.08364 7.92423 7.34338L6.71098 8.55663C8.07093 10.9483 10.0512 12.9286 12.4429 14.2885L13.6561 13.0753C13.9159 12.8184 14.2438 12.6414 14.601 12.5652C14.9583 12.489 15.3299 12.5168 15.6718 12.6454C16.5386 12.9688 17.4391 13.1931 18.3563 13.3141C18.8203 13.3796 19.2441 13.6133 19.5471 13.9709C19.8501 14.3284 20.011 14.7849 19.9994 15.2534Z" stroke="#212121" stroke-width="1.6" stroke-linecap="round" stroke-linejoin="round"/>
</svg>
